<svg xmlns="http://www.w3.org/2000/svg" width="1280" height="760" viewBox="0 0 1280 760">
<defs>
  <marker id="arrow" markerWidth="10" markerHeight="10" refX="9" refY="3" orient="auto" markerUnits="strokeWidth"><path d="M0,0 L0,6 L9,3 z" fill="#475569"/></marker>
  <style>
    .title { font: 700 29px Arial, sans-serif; fill:#111827; }
    .subtitle { font: 400 15px Arial, sans-serif; fill:#475569; }
    .node-label { font: 700 15px Arial, sans-serif; fill:#111827; }
    .node-label.small { font-size: 13px; font-weight: 600; fill:#334155; }
    .edge { fill:none; stroke:#475569; stroke-width:2.2; }
    .edge-label { font: 600 12px Arial, sans-serif; fill:#334155; paint-order:stroke; stroke:#ffffff; stroke-width:5px; stroke-linejoin:round; }
    .note { font: 500 14px Arial, sans-serif; fill:#334155; }
  </style>
</defs>
<rect width="100%" height="100%" fill="#FFFFFF"/>
<text x="55" y="50" class="title">0. V1: EC2 단일 서버</text>
<text x="55" y="78" class="subtitle">최소 인프라로 빠르게 배포. 대신 프론트, 백엔드, DB, 이미지가 한 서버에 묶임.</text>
<rect x="40" y="100" width="1165" height="260" rx="18" fill="#FAFAFA" stroke="#E5E7EB"/>
<rect x="40" y="390" width="1165" height="330" rx="18" fill="#FAFAFA" stroke="#E5E7EB"/>
<text x="60" y="128" class="note">정적 파일 / 이미지 제공 영역</text>
<text x="60" y="418" class="note">API / 데이터 / 비동기 처리 영역</text>

<path d="M 185 345.0 L 300 380.0" class="edge" marker-end="url(#arrow)"/><text x="242.5" y="353.5" text-anchor="middle" class="edge-label">웹/API/이미지 요청</text>
<rect x="55" y="310" width="130" height="70" rx="12" fill="#F8FAFC" stroke="#64748B" stroke-width="2"/>
<circle cx="81" cy="336" r="13" fill="#64748B" opacity="0.9"/>
<text x="136.0" y="350.0" text-anchor="middle" class="node-label">사용자</text>
<rect x="300" y="325" width="245" height="110" rx="12" fill="#EFF6FF" stroke="#3B82F6" stroke-width="2"/>
<circle cx="326" cy="351" r="13" fill="#3B82F6" opacity="0.9"/>
<text x="438.5" y="376.0" text-anchor="middle" class="node-label">EC2 단일 서버</text>
<text x="438.5" y="398.0" text-anchor="middle" class="node-label small">프론트+백엔드+DB+이미지</text>
<rect x="55" y="705" width="650" height="40" rx="10" fill="#F8FAFC" stroke="#CBD5E1"/>
<text x="75" y="730" class="note">핵심: EC2 안에 PostgreSQL 컨테이너와 업로드 이미지까지 함께 존재</text>
</svg>